<?xml version="1.0" encoding="UTF-8" standalone="no"?>
<svg width="120px" height="17px" viewBox="0 0 120 17" version="1.1" xmlns="http://www.w3.org/2000/svg" xmlns:xlink="http://www.w3.org/1999/xlink">
    <!-- Generator: Sketch 3.7.2 (28276) - http://www.bohemiancoding.com/sketch -->
    <title>powered_by_fatsecret</title>
    <desc>Created with Sketch.</desc>
    <defs>
        <rect id="path-1" x="0" y="0" width="120" height="17"></rect>
        <mask id="mask-2" maskContentUnits="userSpaceOnUse" maskUnits="objectBoundingBox" x="0" y="0" width="120" height="17" fill="white">
            <use xlink:href="#path-1"></use>
        </mask>
    </defs>
    <g id="Page-1" stroke="none" stroke-width="1" fill="none" fill-rule="evenodd">
        <g id="powered_by_fatsecret">
            <use id="Rectangle-1-Copy" stroke="#000000" mask="url(#mask-2)" stroke-width="2" fill="#FFFFFF" xlink:href="#path-1"></use>
            <rect id="Rectangle-2-Copy" fill="#000000" x="57" y="0" width="63" height="17"></rect>
            <path d="M3.80609769,4.32910093 L7.2614035,4.32910093 C7.94445274,4.32910093 8.49506581,4.52164126 8.91325922,4.9067277 C9.33145263,5.29181413 9.5405462,5.83284374 9.5405462,6.52983277 C9.5405462,7.12924333 9.35410444,7.65110603 8.98121531,8.09543653 C8.60832618,8.53976703 8.03506131,8.76192895 7.2614035,8.76192895 L4.84634861,8.76192895 L4.84634861,12.0081391 L3.80609769,12.0081391 L3.80609769,4.32910093 Z M7.86255352,5.38503402 C7.63254714,5.27700072 7.31716434,5.22298488 6.91639565,5.22298488 L4.84634861,5.22298488 L4.84634861,7.88372717 L6.91639565,7.88372717 C7.3833783,7.88372717 7.7623604,7.78440773 8.05335331,7.58576586 C8.34434623,7.38712398 8.48984051,7.03689225 8.48984051,6.53506016 C8.48984051,5.97049905 8.28074693,5.58716084 7.86255352,5.38503402 L7.86255352,5.38503402 Z M13.6916178,10.6934501 C13.9233667,10.2212401 14.0392394,9.69589246 14.0392394,9.11739157 C14.0392394,8.59464981 13.9556019,8.16949288 13.7883246,7.84190804 C13.5234687,7.32613616 13.0669478,7.06825409 12.418748,7.06825409 C11.843732,7.06825409 11.4255449,7.28780234 11.164174,7.72690543 C10.9028031,8.16600851 10.7721196,8.69571222 10.7721196,9.31603245 C10.7721196,9.91195807 10.9028031,10.4085553 11.164174,10.805839 C11.4255449,11.2031228 11.8402471,11.4017617 12.4082932,11.4017617 C13.0320984,11.4017617 13.459869,11.1656602 13.6916178,10.6934501 L13.6916178,10.6934501 Z M14.274472,6.96893366 C14.7728191,7.44985608 15.021989,8.15728933 15.021989,9.09125462 C15.021989,9.9938554 14.8024407,10.7396225 14.3633376,11.3285782 C13.9242345,11.9175339 13.242938,12.2120074 12.3194275,12.2120074 C11.5492547,12.2120074 10.937656,11.9515116 10.4846131,11.4305123 C10.0315702,10.909513 9.80505221,10.2099208 9.80505221,9.33171463 C9.80505221,8.39077945 10.0437674,7.64152749 10.5212049,7.08393627 C10.9986423,6.52634505 11.6398626,6.24755362 12.4448849,6.24755362 C13.1662686,6.24755362 13.7761248,6.48801123 14.274472,6.96893366 L14.274472,6.96893366 Z M16.0392394,6.40960276 L17.116082,10.8215212 L18.2086068,6.40960276 L19.2645399,6.40960276 L20.3622922,10.7953843 L21.5070909,6.40960276 L22.4480214,6.40960276 L20.8223026,12.0081391 L19.8447804,12.0081391 L18.705209,7.67463151 L17.6022294,12.0081391 L16.6247072,12.0081391 L15.0094432,6.40960276 L16.0392394,6.40960276 Z M26.2880632,6.56381081 C26.6609523,6.75025538 26.9449711,6.9915842 27.140128,7.28780454 C27.328315,7.57008509 27.4537712,7.89940747 27.5165002,8.27578154 C27.5722593,8.53366748 27.6001385,8.94488483 27.6001385,9.50944594 L23.4966361,9.50944594 C23.5140608,10.077492 23.6482292,10.5331417 23.8991453,10.8764088 C24.1500613,11.2196759 24.5386269,11.3913069 25.0648536,11.3913069 C25.5562308,11.3913069 25.9482813,11.2292594 26.2410167,10.9051595 C26.408294,10.7169724 26.5267804,10.4991666 26.5964793,10.2517355 L27.5217276,10.2517355 C27.497333,10.4573473 27.4163092,10.686479 27.2786539,10.9391375 C27.1409986,11.191796 26.986792,11.3982759 26.8160297,11.5585834 C26.5302642,11.837379 26.1765476,12.0255632 25.7548693,12.1231417 C25.5283478,12.1789008 25.2722082,12.20678 24.9864427,12.20678 C24.2894537,12.20678 23.6987643,11.953254 23.214357,11.4461945 C22.7299496,10.939135 22.4877495,10.2290881 22.4877495,9.31603245 C22.4877495,8.41691661 22.731692,7.68683156 23.2195844,7.1257554 C23.7074767,6.56467924 24.3452121,6.28414536 25.1328097,6.28414536 C25.5300934,6.28414536 25.9151741,6.37736625 26.2880632,6.56381081 L26.2880632,6.56381081 Z M26.633071,8.76192895 C26.5947366,8.35419037 26.5058719,8.02835289 26.3664741,7.78440673 C26.1085881,7.33136387 25.6782039,7.10484584 25.0753084,7.10484584 C24.6431752,7.10484584 24.2807463,7.26079479 23.9880109,7.57269738 C23.6952755,7.88459996 23.5401978,8.28100653 23.5227731,8.76192895 L26.633071,8.76192895 Z M28.2462441,6.40960276 L29.140128,6.40960276 L29.140128,7.37667019 C29.2133119,7.18848316 29.3927838,6.95935145 29.6785493,6.68926821 C29.9643148,6.41918496 30.2936372,6.28414536 30.6665263,6.28414536 C30.6839511,6.28414536 30.7135727,6.28588781 30.755392,6.28937276 C30.7972113,6.2928577 30.8686516,6.29982749 30.969715,6.31028232 L30.969715,7.30348671 C30.9139559,7.29303188 30.8625538,7.28606209 30.815507,7.28257715 C30.7684602,7.2790922 30.7170581,7.27734976 30.6612989,7.27734976 C30.1873464,7.27734976 29.8231751,7.42981382 29.5687741,7.73474651 C29.3143731,8.03967921 29.1871745,8.39078217 29.1871745,8.78806591 L29.1871745,12.0081391 L28.2462441,12.0081391 L28.2462441,6.40960276 Z M34.7365734,6.56381081 C35.1094625,6.75025538 35.3934813,6.9915842 35.5886382,7.28780454 C35.7768252,7.57008509 35.9022814,7.89940747 35.9650104,8.27578154 C36.0207695,8.53366748 36.0486487,8.94488483 36.0486487,9.50944594 L31.9451463,9.50944594 C31.962571,10.077492 32.0967394,10.5331417 32.3476555,10.8764088 C32.5985715,11.2196759 32.9871371,11.3913069 33.5133638,11.3913069 C34.004741,11.3913069 34.3967915,11.2292594 34.6895269,10.9051595 C34.8568042,10.7169724 34.9752906,10.4991666 35.0449895,10.2517355 L35.9702378,10.2517355 C35.9458432,10.4573473 35.8648194,10.686479 35.7271641,10.9391375 C35.5895087,11.191796 35.4353022,11.3982759 35.2645399,11.5585834 C34.9787744,11.837379 34.6250578,12.0255632 34.2033794,12.1231417 C33.976858,12.1789008 33.7207184,12.20678 33.4349529,12.20678 C32.7379639,12.20678 32.1472745,11.953254 31.6628672,11.4461945 C31.1784598,10.939135 30.9362597,10.2290881 30.9362597,9.31603245 C30.9362597,8.41691661 31.1802022,7.68683156 31.6680946,7.1257554 C32.1559869,6.56467924 32.7937223,6.28414536 33.5813199,6.28414536 C33.9786036,6.28414536 34.3636843,6.37736625 34.7365734,6.56381081 L34.7365734,6.56381081 Z M35.0815812,8.76192895 C35.0432468,8.35419037 34.9543821,8.02835289 34.8149843,7.78440673 C34.5570983,7.33136387 34.1267141,7.10484584 33.5238185,7.10484584 C33.0916854,7.10484584 32.7292565,7.26079479 32.4365211,7.57269738 C32.1437857,7.88459996 31.988708,8.28100653 31.9712833,8.76192895 L35.0815812,8.76192895 Z M37.6461395,10.7797021 C37.9005405,11.1839557 38.308273,11.3860795 38.8693491,11.3860795 C39.3049673,11.3860795 39.66304,11.1987665 39.9435781,10.8241349 C40.2241162,10.4495033 40.3643831,9.91195859 40.3643831,9.21148462 C40.3643831,8.50404076 40.2197601,7.98043562 39.9305096,7.64065347 C39.6412592,7.30087132 39.2840577,7.13098279 38.8588943,7.13098279 C38.3849418,7.13098279 38.0007324,7.31219722 37.7062545,7.67463151 C37.4117767,8.0370658 37.2645399,8.57025441 37.2645399,9.27421332 C37.2645399,9.87362388 37.3917385,10.3754484 37.6461395,10.7797021 L37.6461395,10.7797021 Z M39.7580057,6.58210668 C39.9252831,6.68665504 40.1152097,6.86961191 40.3277914,7.13098279 L40.3277914,4.30296397 L41.2321301,4.30296397 L41.2321301,12.0081391 L40.3852927,12.0081391 L40.3852927,11.2292578 C40.1657411,11.5742673 39.9061166,11.8234372 39.6064113,11.9767747 C39.3067061,12.1301123 38.9634441,12.20678 38.5766152,12.20678 C37.95281,12.20678 37.4126516,11.9445418 36.9561238,11.4200575 C36.499596,10.8955733 36.2713355,10.1977235 36.2713355,9.32648724 C36.2713355,8.51101008 36.4795579,7.80444806 36.8960088,7.20677997 C37.3124598,6.60911188 37.9075052,6.31028232 38.681163,6.31028232 C39.1098113,6.31028232 39.4687552,6.40088954 39.7580057,6.58210668 L39.7580057,6.58210668 Z M44.4532488,4.30296397 L45.3680423,4.30296397 L45.3680423,7.08916366 C45.573654,6.82082289 45.819339,6.61608543 46.1051045,6.47494516 C46.39087,6.33380488 46.7010255,6.2632358 47.0355802,6.2632358 C47.7325692,6.2632358 48.2979931,6.50282218 48.7318687,6.98200213 C49.1657444,7.46118209 49.382679,8.16774411 49.382679,9.1017094 C49.382679,9.98688546 49.1683581,10.7221978 48.7397098,11.3076686 C48.3110616,11.8931394 47.7168873,12.1858704 46.9571693,12.1858704 C46.532006,12.1858704 46.173062,12.0830661 45.8803267,11.8774543 C45.7060794,11.7554812 45.5196376,11.5603272 45.3209958,11.2919865 L45.3209958,12.0081391 L44.4532488,12.0081391 L44.4532488,4.30296397 Z M48.0418531,10.7483377 C48.2945116,10.3440841 48.4208389,9.8108955 48.4208389,9.14875592 C48.4208389,8.5598002 48.2945116,8.0719152 48.0418531,7.6850863 C47.7891945,7.29825739 47.4171822,7.10484584 46.925805,7.10484584 C46.4971567,7.10484584 46.1216595,7.26340846 45.7993021,7.58053846 C45.4769447,7.89766847 45.3157684,8.4204024 45.3157684,9.14875592 C45.3157684,9.67498264 45.3819813,10.101882 45.5144092,10.4294668 C45.7618403,11.0463021 46.2235886,11.3547152 46.899668,11.3547152 C47.40847,11.3547152 47.7891945,11.1525914 48.0418531,10.7483377 L48.0418531,10.7483377 Z M53.4422712,6.40960276 L54.4825222,6.40960276 C54.3500942,6.76855211 54.0556208,7.58750193 53.599093,8.86647678 C53.2575684,9.82832163 52.9718072,10.6124225 52.7418008,11.218803 C52.1981493,12.6476305 51.8148111,13.5188537 51.5917746,13.8324987 C51.3687382,14.1461438 50.9853999,14.302964 50.4417485,14.302964 C50.3093206,14.302964 50.2073875,14.2977366 50.1359461,14.2872818 C50.0645047,14.276827 49.9765112,14.2576601 49.8719628,14.2297805 L49.8719628,13.3724883 C50.0357552,13.4177926 50.1542416,13.4456717 50.2274255,13.4561265 C50.3006093,13.4665814 50.3650798,13.4718087 50.4208389,13.4718087 C50.5950862,13.4718087 50.723156,13.4430584 50.8050522,13.3855568 C50.8869484,13.3280552 50.9557751,13.2574861 51.0115342,13.1738474 C51.0289589,13.1459678 51.091687,13.0030872 51.1997203,12.7452013 C51.3077536,12.4873154 51.3861637,12.2956463 51.4349529,12.1701882 L49.3649058,6.40960276 L50.4312937,6.40960276 L51.9315551,10.9678882 L53.4422712,6.40960276 Z" id="Powered-by-Copy" fill="#000000"></path>
            <g id="fatsecret_logo_green" transform="translate(60.000000, 1.000000)" fill="#FFFFFF">
                <g id="Group-2" transform="translate(16.025446, 2.131042)">
                    <path d="M38.3781279,1.40749367 L38.3781279,2.84810127 L37.4661724,2.84810127 L37.4661724,3.64556962 L38.3781279,3.64556962 L38.3781279,6.91139241 C38.3781279,7.62530127 38.4888849,8.2018443 38.7964799,8.51964304 C39.0548483,8.81300127 39.4612613,8.97189873 39.9727505,8.97189873 C40.39692,8.97189873 40.7337546,8.91078228 40.9458222,8.82522152 L40.8959307,8.0167481 C40.7587004,8.05432405 40.5466213,8.0919 40.2596745,8.0919 C39.6484135,8.0919 39.442076,7.66288481 39.442076,6.91139241 L39.442076,3.64556962 L41,3.64556962 L41,2.84810127 L39.442076,2.84810127 L39.4363041,1.12054177 L38.3781279,1.40749367 L38.3781279,1.40749367 L38.3781279,1.40749367 Z" id="t"></path>
                    <path d="M36.9762775,5.52983924 C36.9762775,4.45082658 36.4534344,2.75216203 34.480981,2.75216203 C32.7189006,2.75216203 31.6459697,4.16264051 31.6459697,5.94153418 C31.6459697,7.79539747 32.7563705,8.96762658 34.6184279,8.96762658 C35.5807006,8.96762658 36.2417885,8.78155443 36.6277281,8.61872278 L36.4409748,7.85895949 C36.0301464,8.03692025 35.5557092,8.17673924 34.7684066,8.17673924 C33.6686566,8.17673924 32.7207815,7.55051013 32.6957711,6.03797468 L36.9383363,6.03797468 C36.9383363,6.03797468 36.9762775,5.75440633 36.9762775,5.52983924 L36.9762775,5.52983924 Z M32.7024132,5.21251519 C32.7899039,4.48001013 33.2812655,3.53815443 34.3934979,3.53815443 C35.6307099,3.53815443 35.9302455,4.56805063 35.9177935,5.24050633 L32.7057342,5.24050633 L32.7024132,5.21251519 L32.7024132,5.21251519 Z" id="e"></path>
                    <path d="M28.536608,8.88607595 L29.6005561,8.88607595 L29.6005561,5.68986076 C29.6005561,5.50399367 29.6197413,5.33009241 29.6446947,5.18141013 C29.7944074,4.36365949 30.343302,3.78131772 31.1167695,3.78131772 C31.2665012,3.78131772 31.3940762,3.78217975 31.5004634,3.81783797 L31.5004634,2.75830253 C31.4068132,2.74301392 31.3039028,2.73979367 31.1791663,2.73979367 C30.4431384,2.73979367 29.7819174,3.25429747 29.5096151,4.06629494 L29.4609661,4.06629494 L29.4138484,2.84810127 L28.4861806,2.84810127 C28.5236392,3.41022911 28.536608,4.0147481 28.536608,4.72710759 L28.536608,8.88607595 L28.536608,8.88607595 L28.536608,8.88607595 Z" id="r"></path>
                    <path d="M27.3282175,7.87271772 C27.0163667,8.01206582 26.6046758,8.17673924 25.9809096,8.17673924 C24.7832537,8.17673924 23.8850459,7.30267215 23.8850459,5.88390759 C23.8850459,4.60448734 24.63356,3.56554177 26.0183416,3.56554177 C26.6171468,3.56554177 27.0288149,3.70507215 27.2908045,3.85709241 L27.540308,3.05712152 C27.2409054,2.9215481 26.6670346,2.77465443 26.0183416,2.77465443 C24.047241,2.77465443 22.8268659,4.04711392 22.8268659,5.93457342 C22.8268659,7.80937975 23.9598908,8.96762658 25.7813054,8.96762658 C26.5921896,8.96762658 27.2284078,8.7868557 27.5153622,8.65127468 L27.3282175,7.87271772 L27.3282175,7.87271772 L27.3282175,7.87271772 Z" id="c"></path>
                    <path d="M22.1190022,5.52983924 C22.1190022,4.45082658 21.5961591,2.75216203 19.6237057,2.75216203 C17.8616253,2.75216203 16.7886944,4.16264051 16.7886944,5.94153418 C16.7886944,7.79539747 17.8990953,8.96762658 19.7611526,8.96762658 C20.7234253,8.96762658 21.3845133,8.78155443 21.7704528,8.61872278 L21.5836995,7.85895949 C21.1728712,8.03692025 20.6984339,8.17673924 19.9111313,8.17673924 C18.8113814,8.17673924 17.8635062,7.55051013 17.8384958,6.03797468 L22.0802707,6.03797468 C22.0802707,6.03797468 22.1190022,5.75440633 22.1190022,5.52983924 L22.1190022,5.52983924 Z M17.8451379,5.21251519 C17.9326286,4.48001013 18.4239903,3.53815443 19.5362226,3.53815443 C20.7734347,3.53815443 21.0729703,4.56805063 21.0605183,5.24050633 L17.8484589,5.24050633 L17.8451379,5.21251519 L17.8451379,5.21251519 Z" id="e"></path>
                    <path d="M12.1824603,8.56610886 C12.6066184,8.80945063 13.2178908,8.96762658 13.8898082,8.96762658 C15.3509168,8.96762658 16.1725545,8.23760506 16.1725545,7.19042658 C16.1725545,6.30274177 15.6372594,5.78490759 14.5786614,5.39039241 C13.7749778,5.09448608 13.4050431,4.87255063 13.4050431,4.3794 C13.4050431,3.93556329 13.7749778,3.56554177 14.4383305,3.56554177 C15.0123761,3.56554177 15.4505061,3.76296076 15.6870636,3.91091013 L15.9609656,3.13413418 C15.6248188,2.94240759 15.0889272,2.77465443 14.4638424,2.77465443 C13.1430649,2.77465443 12.357096,3.54158354 12.357096,4.5026962 C12.357096,5.21778228 12.8685777,5.80957215 13.9663213,6.19176456 C14.7955093,6.48767089 15.1143935,6.77123165 15.1143935,7.28905443 C15.1143935,7.78221266 14.7317408,8.17673924 13.9153012,8.17673924 C13.3551325,8.17673924 12.7812731,7.95482658 12.4569057,7.74523291 L12.1824603,8.56610886 L12.1824603,8.56610886 L12.1824603,8.56610886 Z" id="s"></path>
                    <path d="M9.11955514,1.40749367 L9.11955514,2.84810127 L8.20759963,2.84810127 L8.20759963,3.64556962 L9.11955514,3.64556962 L9.11955514,6.91139241 C9.11955514,7.62530127 9.23031214,8.2018443 9.53790714,8.51964304 C9.79627553,8.81300127 10.2026885,8.97189873 10.7141778,8.97189873 C11.1383473,8.97189873 11.4751818,8.91078228 11.6872495,8.82522152 L11.6373579,8.0167481 C11.5001276,8.05432405 11.2880486,8.0919 11.0011018,8.0919 C10.3898408,8.0919 10.1835032,7.66288481 10.1835032,6.91139241 L10.1835032,3.64556962 L11.7414272,3.64556962 L11.7414272,2.84810127 L10.1835032,2.84810127 L10.1777313,1.12054177 L9.11955514,1.40749367 L9.11955514,1.40749367 L9.11955514,1.40749367 Z" id="t"></path>
                    <path d="M7.66221983,8.88700253 C7.58677071,8.47344304 7.56163114,7.95963797 7.56163114,7.43328608 L7.56163114,5.14512532 C7.56163114,3.91296835 7.10992057,2.65103165 5.23175959,2.65103165 C4.45339036,2.65103165 3.72162966,2.86178734 3.23679231,3.18410506 L3.47921288,3.91296835 C3.89189555,3.63414684 4.49165829,3.45680127 5.06588628,3.45680127 C6.32919546,3.45680127 6.49768304,4.36924937 6.49768304,4.87617722 L6.49768304,5.01265823 C4.14389546,5.01265823 2.74940908,5.02040886 2.76163689,6.94957215 C2.77136061,8.48358608 3.81024133,8.96718987 4.91843068,8.96718987 C5.69772706,8.96718987 6.24867359,8.57465696 6.53269453,8.06905443 L6.5703507,8.06905443 L6.65817201,8.88700253 L7.66221983,8.88700253 L7.66221983,8.88700253 L7.66221983,8.88700253 Z M6.49768304,6.64059873 C6.49768304,6.72671013 6.46955681,7.05283291 6.43126228,7.16303165 C6.25262539,7.66501899 5.74220009,8.15477468 4.93827331,8.15477468 C4.44685848,8.15477468 3.90649824,7.82488101 3.87543855,7.10126582 C3.82297831,5.87891772 4.51313485,5.81012658 6.49768304,5.81012658 L6.49768304,6.64059873 L6.49768304,6.64059873 Z" id="a"></path>
                    <path d="M1.0639481,8.88607595 L1.0639481,3.64556962 L2.50787766,3.64556962 L2.50787766,2.84810127 L1.0639481,2.84810127 L1.0639481,2.53353038 C1.0639481,1.61485063 1.29521242,0.793667089 2.23087118,0.793667089 C2.54275996,0.793667089 2.76729481,0.855653165 2.9294747,0.930140506 L3.0791874,0.158741772 C2.86709694,0.0807607595 2.53027377,0.00277974684 2.14353624,0.00277974684 C1.63203559,0.00277974684 1.08313336,0.147588608 0.681109175,0.50404557 C0.1824595,0.954983544 0,1.72467722 0,2.56888101 L0,8.88607595 L1.05819518,8.88607595 L1.0639481,8.88607595 L1.0639481,8.88607595 Z" id="f"></path>
                </g>
                <g id="Group" transform="translate(0.000000, 0.500000)">
                    <path d="M7.01399451,0.710767442 C10.5145887,0.710753488 13.3522997,3.53681395 13.3522997,7.02305581 C13.3522997,10.5092977 10.5145887,13.3353488 7.01399451,13.3353488 C3.51340027,13.3353488 0.675684615,10.5092977 0.675684615,7.02305581 C0.675684615,3.53681395 3.51340027,0.710767442 7.01399451,0.710767442 L7.01399451,0.710767442 Z M7.01399451,0.0463116279 C3.14491593,0.0463116279 0.0085,3.16985581 0.0085,7.02305581 C0.0085,10.8762558 3.14491593,13.9998 7.01399451,13.9998 C10.8830684,13.9998 14.019489,10.8762558 14.019489,7.02305581 C14.019489,3.16985581 10.8830684,0.0463116279 7.01399451,0.0463116279 L7.01399451,0.0463116279 Z" id="Shape"></path>
                    <path d="M4.94681319,10.9071674 C4.94681319,10.9741535 5.00225,11.0284558 5.0705956,11.0284558 L8.95739341,11.0284558 C9.02574835,11.0284558 9.08117582,10.9741535 9.08117582,10.9071674 C9.08117582,10.8846047 8.27850962,7.78757209 8.06817198,6.97627907 C8.75193626,6.61003721 9.21571401,5.89836279 9.21571401,5.08063256 C9.21571401,3.88852093 8.22998022,2.92213953 7.01399451,2.92213953 C5.79800412,2.92213953 4.81227033,3.88852093 4.81227033,5.08063256 C4.81227033,5.89836279 5.27602473,6.61003721 5.95981703,6.97627907 C5.74947473,7.78757209 4.94681319,10.8846047 4.94681319,10.9071674 L4.94681319,10.9071674 Z" id="Shape"></path>
                </g>
            </g>
        </g>
    </g>
</svg>